
<svg xmlns="http://www.w3.org/2000/svg" viewBox="0 0 24 24" fill="none" stroke="currentColor" stroke-width="2" stroke-linecap="round" stroke-linejoin="round">
  <path d="M21 17.2V3a2 2 0 0 0-2-2H5a2 2 0 0 0-2 2v14.2"></path>
  <path d="M21 13.9 3 13.9"></path>
  <path d="M21 21.4V20a2 2 0 0 0-2-2H5a2 2 0 0 0-2 2v1.4"></path>
  <path d="M17 5.375v1.25"></path>
  <path d="M12 5.375v1.25"></path>
  <path d="M7 5.375v1.25"></path>
  <path d="M17 9.575v1.25"></path>
  <path d="M12 9.575v1.25"></path>
  <path d="M7 9.575v1.25"></path>
</svg>
